<?xml version="1.0" standalone="no"?>
<!DOCTYPE svg PUBLIC "-//W3C//DTD SVG 20010904//EN"
 "http://www.w3.org/TR/2001/REC-SVG-20010904/DTD/svg10.dtd">
<svg version="1.0" xmlns="http://www.w3.org/2000/svg"
 width="260.000000pt" height="260.000000pt" viewBox="0 0 260.000000 260.000000"
 preserveAspectRatio="xMidYMid meet">
<metadata>
Created by potrace 1.14, written by Peter Selinger 2001-2017
</metadata>
<g transform="translate(0.000000,260.000000) scale(0.100000,-0.100000)"
fill="#000000" stroke="none">
<path d="M1560 2393 c-190 -25 -374 -111 -497 -234 -29 -29 -52 -53 -50 -55 1
-1 45 -4 97 -7 135 -8 182 -18 300 -65 237 -93 441 -296 532 -530 84 -213 88
-461 13 -666 -14 -38 -23 -71 -21 -73 6 -7 111 43 172 82 157 100 313 310 350
468 1 4 2 8 4 10 1 1 3 9 5 17 2 8 6 29 10 45 4 17 8 86 10 155 3 105 0 140
-20 216 -93 365 -416 628 -785 637 -52 2 -106 1 -120 0z"/>
<path d="M866 2080 c-215 -45 -407 -164 -546 -337 -85 -106 -162 -262 -186
-378 -14 -69 -18 -120 -18 -230 1 -152 22 -250 85 -383 134 -288 417 -501 719
-540 69 -8 231 -8 287 1 228 36 452 165 593 342 53 66 125 184 117 191 -3 3
-33 -3 -68 -12 -91 -25 -309 -25 -404 0 -282 74 -506 282 -600 558 -44 132
-51 322 -15 463 21 86 104 261 145 309 14 16 25 31 25 33 0 7 -49 1 -134 -17z"/>
</g>
</svg>
